# Blender v2.79 (sub 0) OBJ File: ''
# www.blender.org
mtllib Chassis_outline.mtl
o Chassis_outline
v -0.030795 0.133000 -0.068949
v 0.037026 0.133000 -0.068949
v -0.030795 0.097700 -0.078483
v 0.063064 0.097700 -0.078483
v -0.030795 0.141447 -0.068949
v 0.030795 0.141447 -0.068949
v -0.030795 0.141447 -0.024127
v 0.030795 0.141447 -0.024127
v 0.037026 0.133000 -0.024127
v -0.030795 0.133000 -0.024127
v 0.039239 0.130000 -0.022402
v -0.030795 0.130000 -0.022402
v 0.039205 -0.130000 -0.022338
v -0.030795 -0.130000 -0.022338
v 0.037001 -0.133000 -0.024127
v -0.030795 -0.133000 -0.024127
v 0.030795 -0.141447 -0.024127
v -0.030795 -0.141447 -0.024127
v -0.024000 0.081000 -0.092000
v -0.140061 0.081000 -0.092000
v -0.024000 0.081000 -0.086000
v -0.145469 0.081000 -0.086000
v -0.024000 -0.080908 -0.092000
v -0.024000 -0.080908 -0.086000
v -0.140061 -0.080908 -0.092000
v -0.145469 -0.080908 -0.086000
v 0.063064 -0.097527 -0.078716
v 0.036267 -0.134000 -0.068949
v -0.030795 -0.097527 -0.078716
v -0.030795 -0.134000 -0.068949
v 0.030795 -0.141447 -0.068949
v -0.030795 -0.141447 -0.068949
v -0.030795 -0.130000 0.006000
v 0.102852 -0.130000 0.006000
v -0.030795 -0.097527 0.006000
v 0.102852 -0.097527 0.006000
v 0.063064 0.097700 -0.018000
v 0.105998 0.097700 -0.049290
v 0.076681 0.097700 -0.086000
v -0.145469 0.097700 -0.086000
v -0.148002 0.097700 -0.083190
v 0.102852 0.097700 -0.018000
v 0.105998 0.097700 0.003000
v 0.102852 0.097700 0.003000
v -0.148002 0.097700 0.003000
v -0.030795 0.097700 0.003000
v 0.039239 0.130000 -0.018000
v 0.105998 -0.097527 -0.049290
v 0.076681 -0.097527 -0.086000
v -0.145469 -0.097527 -0.086000
v -0.148002 -0.097527 -0.083190
v -0.148002 -0.097527 0.003000
v -0.030795 -0.097527 0.003000
v 0.105998 -0.097527 0.003000
v 0.102852 -0.097527 -0.018000
v 0.063064 -0.097527 -0.018000
v 0.102852 -0.097527 0.003000
v 0.039205 -0.130000 -0.018000
v 0.098719 -0.024000 -0.019464
v 0.090998 -0.024000 -0.019464
v 0.096922 -0.024000 -0.025151
v 0.090998 -0.024000 -0.060000
v 0.097445 -0.024000 -0.060000
v 0.105000 -0.024000 -0.027000
v 0.090998 0.024000 -0.060000
v 0.097445 0.024000 -0.060000
v 0.105000 0.024000 -0.027000
v 0.096922 0.024000 -0.025151
v 0.098719 0.024000 -0.019464
v 0.090998 0.024000 -0.019464
v 0.097445 -0.088411 -0.060000
v 0.090998 -0.088411 -0.068073
v 0.090998 0.088411 -0.068073
v 0.104144 -0.086577 -0.051612
v 0.110769 -0.083973 -0.043317
v 0.113822 -0.082374 -0.039493
v 0.116524 -0.080648 -0.036110
v 0.118898 -0.078796 -0.033137
v 0.132998 -0.070527 -0.015482
v 0.120971 -0.076818 -0.030541
v 0.122779 -0.074704 -0.028278
v 0.124396 -0.072369 -0.026254
v 0.125830 -0.069772 -0.024458
v 0.127073 -0.066891 -0.022901
v 0.128099 -0.063762 -0.021616
v 0.128894 -0.060466 -0.020621
v 0.129831 -0.053550 -0.019447
v 0.129831 0.053723 -0.019447
v 0.132998 0.070700 -0.015482
v 0.129419 0.057393 -0.019964
v 0.128789 0.060967 -0.020752
v 0.129818 0.053723 -0.019464
v 0.127912 0.064405 -0.021850
v 0.126774 0.067656 -0.023276
v 0.125404 0.070609 -0.024991
v 0.123817 0.073265 -0.026979
v 0.122018 0.075648 -0.029231
v 0.120018 0.077779 -0.031736
v 0.117824 0.079681 -0.034483
v 0.115442 0.081382 -0.037465
v 0.110101 0.084285 -0.044152
v 0.104058 0.086608 -0.051719
v 0.097445 0.088411 -0.060000
v -0.178002 -0.067527 -0.049905
v -0.178002 0.067700 -0.049905
v 0.090998 0.088411 -0.060000
v 0.090998 0.086352 -0.050758
v 0.090998 0.083722 -0.042665
v 0.090998 0.082179 -0.039075
v 0.090998 0.080473 -0.035801
v 0.090998 0.078597 -0.032851
v 0.090998 0.076546 -0.030223
v 0.090998 0.074315 -0.027909
v 0.090998 0.071902 -0.025899
v 0.090998 0.066534 -0.022735
v 0.090998 0.060461 -0.020620
v 0.090998 0.053723 -0.019464
v 0.090998 0.053723 -0.019447
v 0.090998 -0.053550 -0.019447
v 0.090998 -0.088411 -0.060000
v 0.090998 -0.060323 -0.020585
v 0.090998 -0.066428 -0.022687
v 0.090998 -0.071826 -0.025842
v 0.090998 -0.074251 -0.027850
v 0.090998 -0.076493 -0.030162
v 0.090998 -0.078555 -0.032791
v 0.090998 -0.080440 -0.035744
v 0.090998 -0.082154 -0.039022
v 0.090998 -0.083704 -0.042620
v 0.090998 -0.086344 -0.050731
v 0.132998 -0.070527 0.003000
v -0.178002 0.067700 0.003000
v -0.178002 -0.067527 0.003000
v 0.132998 0.070700 0.003000
v 0.102852 -0.130000 -0.018000
v 0.102852 0.130000 -0.018000
v 0.102852 0.130000 0.006000
v 0.102852 0.097700 0.006000
v -0.030795 0.097700 0.006000
v -0.030795 0.130000 0.006000
vn 0.0000 0.2607 -0.9654
vn 0.0000 0.0000 -1.0000
vn 0.0000 1.0000 0.0000
vn 0.0000 0.0000 1.0000
vn 0.0000 0.4983 0.8670
vn 0.0000 -0.5120 0.8590
vn 0.0000 -1.0000 0.0000
vn 0.0000 -0.2587 -0.9660
vn 0.8048 0.5936 0.0000
vn 0.8059 -0.5921 0.0000
vn 0.9748 0.0000 -0.2232
vn 0.2232 0.0000 0.9748
vn 0.9535 0.0000 -0.3014
vn 1.0000 0.0000 0.0000
vn 0.7814 0.0000 -0.6240
vn 0.7814 0.0002 -0.6240
vn -0.7428 0.0000 -0.6695
vn 0.0000 -0.9771 -0.2127
vn 0.0032 -0.9761 -0.2175
vn -0.0027 -0.9566 -0.2915
vn 0.0040 -0.9511 -0.3090
vn -0.0037 -0.9184 -0.3957
vn -0.0040 -0.9187 -0.3949
vn 0.0015 -0.8868 -0.4622
vn -0.0013 -0.8692 -0.4945
vn 0.0015 -0.8439 -0.5365
vn -0.0013 -0.8226 -0.5687
vn 0.0014 -0.7883 -0.6153
vn -0.0014 -0.7622 -0.6474
vn 0.0014 -0.7199 -0.6941
vn -0.0014 -0.6875 -0.7262
vn 0.0013 -0.6402 -0.7682
vn -0.0014 -0.5998 -0.8002
vn 0.0036 -0.5077 -0.8615
vn 0.0026 -0.5013 -0.8653
vn -0.0012 -0.4019 -0.9157
vn 0.0037 -0.3289 -0.9444
vn 0.0007 -0.3042 -0.9526
vn -0.0005 -0.2153 -0.9765
vn 0.0000 -0.1350 -0.9908
vn 0.0033 -0.1691 -0.9856
vn 0.0000 0.1657 -0.9862
vn -0.0003 0.1674 -0.9859
vn 0.0002 0.2889 -0.9574
vn 0.0039 0.3255 -0.9455
vn -0.0006 0.3802 -0.9249
vn 0.0009 0.4750 -0.8800
vn 0.0046 0.5046 -0.8633
vn -0.0009 0.5691 -0.8223
vn 0.0009 0.6377 -0.7703
vn -0.0008 0.6554 -0.7553
vn 0.0009 0.7179 -0.6961
vn -0.0007 0.7311 -0.6823
vn 0.0007 0.7869 -0.6171
vn -0.0006 0.7957 -0.6058
vn 0.0006 0.8429 -0.5381
vn -0.0006 0.8490 -0.5285
vn 0.0006 0.8862 -0.4634
vn -0.0008 0.8910 -0.4540
vn 0.0007 0.9184 -0.3958
vn -0.0010 0.9229 -0.3850
vn 0.0020 0.9509 -0.3095
vn -0.0030 0.9548 -0.2974
vn 0.0027 0.9760 -0.2176
vn 0.0000 0.9769 -0.2135
vn 0.7071 -0.7071 0.0000
vn -0.7071 0.7071 0.0000
vn -1.0000 0.0000 0.0000
vn -0.7071 -0.7071 0.0000
vn 0.7071 0.7071 0.0000
usemtl None
s off
f 1//1 2//1 3//1
f 3//1 2//1 4//1
f 5//2 6//2 1//2
f 1//2 6//2 2//2
f 7//3 8//3 5//3
f 5//3 8//3 6//3
f 9//4 8//4 10//4
f 10//4 8//4 7//4
f 11//5 9//5 12//5
f 12//5 9//5 10//5
f 13//6 14//6 15//6
f 15//6 14//6 16//6
f 15//4 16//4 17//4
f 17//4 16//4 18//4
f 19//3 20//3 21//3
f 21//3 20//3 22//3
f 23//7 24//7 25//7
f 25//7 24//7 26//7
f 27//8 28//8 29//8
f 29//8 28//8 30//8
f 28//2 31//2 30//2
f 30//2 31//2 32//2
f 33//4 34//4 35//4
f 35//4 34//4 36//4
f 37//3 38//3 4//3
f 4//3 38//3 39//3
f 4//3 39//3 3//3
f 3//3 39//3 40//3
f 3//3 40//3 41//3
f 37//3 42//3 38//3
f 38//3 42//3 43//3
f 43//3 42//3 44//3
f 41//3 45//3 3//3
f 3//3 45//3 46//3
f 8//9 9//9 6//9
f 6//9 9//9 2//9
f 2//9 9//9 11//9
f 2//9 11//9 4//9
f 4//9 11//9 37//9
f 37//9 11//9 47//9
f 48//7 27//7 49//7
f 49//7 27//7 29//7
f 49//7 29//7 50//7
f 50//7 29//7 51//7
f 51//7 29//7 52//7
f 52//7 29//7 53//7
f 54//7 55//7 48//7
f 48//7 55//7 56//7
f 48//7 56//7 27//7
f 54//7 57//7 55//7
f 58//10 13//10 56//10
f 56//10 13//10 27//10
f 27//10 13//10 28//10
f 28//10 13//10 15//10
f 28//10 15//10 17//10
f 17//10 31//10 28//10
f 17//7 18//7 31//7
f 31//7 18//7 32//7
f 40//2 39//2 21//2
f 21//2 39//2 49//2
f 21//2 49//2 24//2
f 24//2 49//2 50//2
f 24//2 50//2 26//2
f 21//2 22//2 40//2
f 59//7 60//7 61//7
f 61//7 60//7 62//7
f 61//7 62//7 63//7
f 63//7 64//7 61//7
f 65//2 66//2 62//2
f 62//2 66//2 63//2
f 66//11 67//11 63//11
f 63//11 67//11 64//11
f 67//12 68//12 64//12
f 64//12 68//12 61//12
f 68//13 69//13 61//13
f 61//13 69//13 59//13
f 69//4 70//4 59//4
f 59//4 70//4 60//4
f 66//3 65//3 68//3
f 68//3 65//3 70//3
f 68//3 70//3 69//3
f 68//3 67//3 66//3
f 19//14 21//14 23//14
f 23//14 21//14 24//14
f 71//15 48//15 72//15
f 72//15 48//15 49//15
f 72//15 49//15 73//15
f 73//15 49//15 39//15
f 73//15 39//15 38//15
f 71//15 74//15 48//15
f 48//15 74//15 75//15
f 48//15 75//15 76//15
f 76//15 77//15 48//15
f 48//15 77//15 78//15
f 48//15 78//15 79//15
f 79//15 78//15 80//15
f 79//15 80//15 81//15
f 81//15 82//15 79//15
f 79//15 82//15 83//15
f 79//15 83//15 84//15
f 84//15 85//15 79//15
f 79//15 85//15 86//15
f 79//15 86//15 87//15
f 87//15 88//15 79//15
f 79//15 88//15 89//15
f 89//15 88//15 90//15
f 89//15 90//15 91//15
f 88//16 92//16 90//16
f 91//15 93//15 89//15
f 89//15 93//15 94//15
f 89//15 94//15 95//15
f 95//15 96//15 89//15
f 89//15 96//15 97//15
f 89//15 97//15 98//15
f 89//15 98//15 38//15
f 38//15 98//15 99//15
f 38//15 99//15 100//15
f 100//15 101//15 38//15
f 38//15 101//15 102//15
f 38//15 102//15 103//15
f 103//15 73//15 38//15
f 20//17 25//17 22//17
f 22//17 25//17 26//17
f 22//17 26//17 104//17
f 104//17 26//17 51//17
f 51//17 26//17 50//17
f 104//17 105//17 22//17
f 22//17 105//17 41//17
f 22//17 41//17 40//17
f 73//7 103//7 106//7
f 103//18 102//18 106//18
f 106//19 102//19 107//19
f 107//20 102//20 101//20
f 107//21 101//21 108//21
f 108//22 101//22 100//22
f 108//23 100//23 109//23
f 109//24 100//24 110//24
f 110//25 100//25 99//25
f 110//26 99//26 111//26
f 111//27 99//27 98//27
f 111//28 98//28 112//28
f 112//29 98//29 97//29
f 112//30 97//30 113//30
f 113//31 97//31 96//31
f 113//32 96//32 114//32
f 114//33 96//33 95//33
f 114//34 95//34 115//34
f 115//35 95//35 94//35
f 115//36 94//36 93//36
f 115//37 93//37 116//37
f 116//38 93//38 91//38
f 116//39 91//39 90//39
f 92//40 117//40 90//40
f 90//41 117//41 116//41
f 88//7 118//7 92//7
f 92//7 118//7 117//7
f 88//2 87//2 118//2
f 118//2 87//2 119//2
f 19//2 23//2 20//2
f 20//2 23//2 25//2
f 71//3 72//3 120//3
f 119//42 87//42 121//42
f 121//43 87//43 86//43
f 121//44 86//44 85//44
f 121//45 85//45 122//45
f 122//46 85//46 84//46
f 122//47 84//47 83//47
f 122//48 83//48 123//48
f 123//49 83//49 82//49
f 123//50 82//50 124//50
f 124//51 82//51 81//51
f 124//52 81//52 125//52
f 125//53 81//53 80//53
f 125//54 80//54 126//54
f 126//55 80//55 78//55
f 126//56 78//56 127//56
f 127//57 78//57 77//57
f 127//58 77//58 128//58
f 128//59 77//59 76//59
f 128//60 76//60 129//60
f 129//61 76//61 75//61
f 129//62 75//62 130//62
f 130//63 75//63 74//63
f 130//64 74//64 120//64
f 120//65 74//65 71//65
f 60//14 127//14 62//14
f 62//14 127//14 128//14
f 62//14 128//14 129//14
f 70//14 119//14 60//14
f 60//14 119//14 122//14
f 60//14 122//14 123//14
f 65//14 110//14 70//14
f 70//14 110//14 111//14
f 70//14 111//14 112//14
f 62//14 73//14 65//14
f 65//14 73//14 106//14
f 65//14 106//14 107//14
f 120//14 72//14 62//14
f 62//14 72//14 73//14
f 107//14 108//14 65//14
f 65//14 108//14 109//14
f 65//14 109//14 110//14
f 112//14 113//14 70//14
f 70//14 113//14 114//14
f 70//14 114//14 115//14
f 116//14 117//14 115//14
f 115//14 117//14 70//14
f 117//14 118//14 70//14
f 70//14 118//14 119//14
f 119//14 121//14 122//14
f 123//14 124//14 60//14
f 60//14 124//14 125//14
f 60//14 125//14 126//14
f 126//14 127//14 60//14
f 129//14 130//14 62//14
f 62//14 130//14 120//14
f 48//66 79//66 54//66
f 54//66 79//66 131//66
f 41//67 105//67 45//67
f 45//67 105//67 132//67
f 45//4 132//4 46//4
f 46//4 132//4 133//4
f 46//4 133//4 53//4
f 53//4 133//4 52//4
f 46//4 53//4 131//4
f 131//4 53//4 57//4
f 131//4 57//4 54//4
f 131//4 134//4 46//4
f 46//4 134//4 44//4
f 44//4 134//4 43//4
f 105//68 104//68 132//68
f 132//68 104//68 133//68
f 51//69 52//69 104//69
f 104//69 52//69 133//69
f 79//14 89//14 131//14
f 131//14 89//14 134//14
f 38//70 43//70 89//70
f 89//70 43//70 134//70
f 57//3 53//3 36//3
f 36//3 53//3 35//3
f 58//2 56//2 135//2
f 135//2 56//2 55//2
f 55//14 57//14 135//14
f 135//14 57//14 34//14
f 34//14 57//14 36//14
f 135//7 34//7 58//7
f 58//7 34//7 33//7
f 58//7 33//7 14//7
f 14//7 13//7 58//7
f 47//2 136//2 37//2
f 37//2 136//2 42//2
f 42//14 136//14 44//14
f 44//14 136//14 137//14
f 44//14 137//14 138//14
f 46//7 44//7 139//7
f 139//7 44//7 138//7
f 12//3 140//3 47//3
f 47//3 140//3 137//3
f 47//3 137//3 136//3
f 47//3 11//3 12//3
f 139//4 138//4 140//4
f 140//4 138//4 137//4
f 33//68 53//68 14//68
f 14//68 53//68 29//68
f 14//68 29//68 30//68
f 33//68 35//68 53//68
f 32//68 18//68 30//68
f 30//68 18//68 16//68
f 30//68 16//68 14//68
f 12//68 10//68 1//68
f 1//68 10//68 7//68
f 1//68 7//68 5//68
f 1//68 3//68 12//68
f 12//68 3//68 46//68
f 12//68 46//68 140//68
f 140//68 46//68 139//68
